<?xml version="1.0" standalone="no"?>
<!DOCTYPE svg PUBLIC "-//W3C//DTD SVG 20010904//EN"
 "http://www.w3.org/TR/2001/REC-SVG-20010904/DTD/svg10.dtd">
<svg version="1.0" xmlns="http://www.w3.org/2000/svg"
 width="512.000000pt" height="512.000000pt" viewBox="0 0 512.000000 512.000000"
 preserveAspectRatio="xMidYMid meet">
<metadata>
Created by potrace 1.14, written by Peter Selinger 2001-2017
</metadata>
<g transform="translate(0.000000,512.000000) scale(0.100000,-0.100000)"
fill="#000000" stroke="none">
<path d="M2379 5116 c-2 -2 -35 -6 -74 -10 -38 -3 -97 -10 -130 -16 -33 -6
-76 -13 -95 -16 -70 -11 -305 -75 -399 -110 -228 -84 -521 -249 -716 -404
-103 -82 -303 -282 -389 -387 -314 -386 -511 -859 -563 -1353 -10 -86 -10
-416 -1 -510 18 -187 79 -454 147 -640 75 -203 240 -499 375 -670 288 -366
651 -642 1071 -814 162 -66 384 -128 542 -152 21 -3 49 -7 63 -10 145 -27 535
-26 710 1 32 5 226 43 260 50 227 51 560 199 784 349 172 115 268 195 421 350
276 280 468 591 598 966 40 115 92 318 102 400 4 29 8 62 11 73 19 100 26 452
12 597 -41 413 -181 805 -409 1150 -91 137 -83 126 -200 264 -147 174 -397
393 -554 486 -22 13 -42 26 -45 29 -18 20 -270 148 -380 193 -184 76 -427 141
-605 163 -27 4 -61 9 -75 11 -30 6 -455 15 -461 10z m446 -310 c17 -3 44 -7
60 -10 17 -3 48 -8 70 -11 178 -26 509 -140 658 -227 26 -15 50 -28 53 -28 11
0 176 -109 249 -164 110 -83 134 -105 256 -227 355 -357 586 -845 637 -1349 9
-89 9 -356 -1 -460 -13 -146 -60 -367 -101 -480 -82 -220 -164 -388 -266 -540
-34 -52 -65 -97 -69 -100 -3 -3 -25 -30 -47 -60 -49 -65 -236 -258 -314 -322
-168 -139 -381 -269 -575 -350 -104 -44 -305 -110 -370 -121 -16 -3 -68 -13
-115 -22 -125 -23 -216 -30 -390 -30 -144 0 -255 7 -340 21 -388 63 -734 213
-1054 457 -182 139 -414 401 -541 612 -135 224 -243 506 -284 740 -6 33 -13
74 -16 90 -21 121 -27 413 -13 565 30 314 145 656 313 933 107 176 190 282
334 426 376 378 845 602 1381 660 73 8 425 6 485 -3z"/>
<path d="M2311 4504 c-439 -59 -841 -261 -1148 -575 -104 -107 -155 -169 -238
-294 -164 -244 -285 -578 -313 -859 -9 -95 -9 -332 1 -431 66 -661 508 -1275
1123 -1561 151 -70 357 -136 469 -150 22 -3 46 -7 53 -9 80 -27 480 -27 612 0
14 3 52 10 85 16 73 13 274 73 335 100 474 208 819 531 1029 962 140 288 195
530 196 852 0 246 -24 401 -96 618 -193 584 -662 1053 -1244 1246 -103 34
-215 61 -355 86 -77 13 -406 13 -509 -1z m508 -303 c616 -110 1106 -519 1306
-1092 66 -188 90 -334 90 -544 0 -214 -19 -339 -82 -530 -194 -594 -749 -1051
-1367 -1122 -122 -15 -433 -7 -488 12 -7 2 -26 6 -43 9 -166 25 -430 134 -596
247 -35 23 -69 48 -76 53 -6 6 -26 22 -45 35 -67 50 -245 239 -310 331 -73
103 -159 263 -202 376 -36 96 -83 285 -93 375 -16 144 -8 385 16 509 100 522
425 951 896 1184 178 88 368 146 525 162 36 3 67 8 69 10 8 8 340 -5 400 -15z"/>
<path d="M1810 3460 l0 -150 243 -1 c309 -1 313 -1 412 -50 71 -36 163 -128
194 -193 11 -25 21 -48 21 -51 0 -3 -196 -5 -435 -5 l-435 0 0 -150 0 -150
436 0 435 0 -7 -22 c-12 -40 -75 -127 -120 -167 -49 -43 -133 -86 -197 -101
-23 -5 -163 -10 -310 -10 l-268 0 23 -29 c37 -45 222 -266 228 -271 3 -3 41
-48 85 -100 44 -52 82 -97 85 -100 3 -3 39 -45 80 -95 41 -49 77 -92 80 -95 3
-3 53 -61 110 -130 57 -69 109 -132 117 -140 45 -50 87 -100 116 -137 17 -23
37 -42 42 -43 12 0 225 179 225 189 0 3 -10 17 -23 31 -12 14 -44 52 -72 85
-27 33 -65 78 -85 100 -19 22 -55 65 -80 95 -116 139 -181 217 -252 298 -21
24 -38 47 -38 51 0 4 34 18 75 30 223 69 428 283 485 509 l14 52 158 0 158 0
0 150 0 150 -160 0 c-146 0 -160 2 -160 18 -1 35 -49 155 -89 218 l-40 64 224
0 225 0 0 150 0 150 -750 0 -750 0 0 -150z"/>
</g>
</svg>
